# xmcd
#
# Track frame offsets:
#	150
#	7959
#	22589
#	31010
#	46031
#	64035
#	81210
#	86126
#	112395
#	120949
#	137357
#	146818
#	153910
#	161422
#	173456
#	186988
#	195856
#	200254
#	206850
#	223722
#	229184
#	238349
# Disc length: 3290 seconds
# Revision: 1
# Processed by: cddbd v1.5.2PL0 Copyright (c) Steve Scherf et al.
#
# Submitted via: libkcddb 0.31
#
DISCID=1c0cd816
DTITLE=Georges Auric - Phèdre - Le Peintre et son Modèle
DYEAR=2005
DGENRE=Ballet
TTITLE0=Phèdre (1950) (Jean Cocteau) - Prélude
TTITLE1=Phèdre (1950) (Jean Cocteau) - Danse des vains ornements
TTITLE2=Phèdre (1950) (Jean Cocteau) - Danse de Phèdre qui cherche à mieux voir et à se dissimuler
TTITLE3=Phèdre (1950) (Jean Cocteau) - Entrée des compagnons d'Hippolyte
TTITLE4=Phèdre (1950) (Jean Cocteau) - Danse des aveux de son amour pour Aricie
TTITLE5=Phèdre (1950) (Jean Cocteau) - Les matelots du port arrivent et annoncent la mort de Thésée. Danse funèbre
TTITLE6=Phèdre (1950) (Jean Cocteau) - Oenone et Phèdre
TTITLE7=Phèdre (1950) (Jean Cocteau) - Hippolite paraît
TTITLE8=Phèdre (1950) (Jean Cocteau) - Oenone entre et annonce le retour de Thésée
TTITLE9=Phèdre (1950) (Jean Cocteau) - Hippolite, ses compagnons, les suivantes de Phèdre entrent en scène pour une danse de joie
TTITLE10=Phèdre (1950) (Jean Cocteau) - Thésée s'élance pour embrasser Phèdre
TTITLE11=Phèdre (1950) (Jean Cocteau) - Hippolite revient
TTITLE12=Phèdre (1950) (Jean Cocteau) - Danse des vagues de la mer
TTITLE13=Phèdre (1950) (Jean Cocteau) - Désespoir et fureur de Thésée
TTITLE14=Phèdre (1950) (Jean Cocteau) - Thésée auquel on annonce la mort d'Hippolite veut se précipiter au dehors
TTITLE15=Le Peintre et son Modèle (1949) (Boris Kochno) - Le peintre et son modèle
TTITLE16=Le Peintre et son Modèle (1949) (Boris Kochno) - Il décide de se mettre au travail
TTITLE17=Le Peintre et son Modèle (1949) (Boris Kochno) - Le modèle commence de poser
TTITLE18=Le Peintre et son Modèle (1949) (Boris Kochno) - Le peintre, découragé, s'est arrêté pour un instant. Pas de deux
TTITLE19=Le Peintre et son Modèle (1949) (Boris Kochno) - Désespérément, il tente de reprendre son travail
TTITLE20=Le Peintre et son Modèle (1949) (Boris Kochno) - Nouvelles poses du modèle
TTITLE21=Le Peintre et son Modèle (1949) (Boris Kochno) - Cadence: nouvel échec du peintre
EXTD=
EXTT0=
EXTT1=
EXTT2=
EXTT3=
EXTT4=
EXTT5=
EXTT6=
EXTT7=
EXTT8=
EXTT9=
EXTT10=
EXTT11=
EXTT12=
EXTT13=
EXTT14=
EXTT15=
EXTT16=
EXTT17=
EXTT18=
EXTT19=
EXTT20=
EXTT21=
PLAYORDER=
